<?xml version="1.0" standalone="no"?>
<!DOCTYPE svg PUBLIC "-//W3C//DTD SVG 20010904//EN"
 "http://www.w3.org/TR/2001/REC-SVG-20010904/DTD/svg10.dtd">
<svg version="1.0" xmlns="http://www.w3.org/2000/svg"
 width="626.000000pt" height="626.000000pt" viewBox="0 0 626.000000 626.000000"
 preserveAspectRatio="xMidYMid meet">

<g transform="translate(0.000000,626.000000) scale(0.100000,-0.100000)"
fill="#000000" stroke="none">
<path d="M2631 6207 c-12 -23 -33 -60 -46 -82 -13 -22 -33 -56 -44 -76 l-20
-36 -58 20 c-74 26 -249 34 -348 17 -38 -7 -115 -31 -170 -53 -89 -37 -111
-42 -208 -47 -99 -4 -111 -7 -128 -29 -10 -13 -19 -32 -19 -42 0 -10 -9 -23
-19 -29 -25 -13 -49 -77 -60 -164 -6 -38 -15 -74 -20 -79 -6 -6 -11 -32 -11
-58 0 -55 44 -148 97 -204 52 -55 70 -107 82 -232 13 -129 2 -313 -30 -518
-12 -71 -27 -173 -35 -225 -8 -52 -17 -196 -21 -320 -6 -261 9 -420 57 -603
74 -282 139 -415 300 -607 162 -194 205 -385 138 -617 -16 -55 -26 -74 -42
-79 -37 -11 -97 -57 -112 -85 -20 -40 -17 -99 6 -129 11 -14 20 -35 20 -47 0
-56 50 -103 109 -103 16 0 47 -11 67 -25 67 -46 166 -22 220 52 l28 40 62 -62
c79 -79 233 -182 359 -241 311 -145 667 -207 1056 -184 90 6 176 13 192 16 25
5 26 4 18 -18 -76 -189 -260 -435 -416 -554 -160 -122 -394 -216 -610 -245
-131 -17 -378 -6 -480 21 -44 12 -83 24 -87 26 -4 3 6 24 22 47 31 43 59 148
60 218 1 150 -114 253 -280 252 -196 -1 -331 -191 -317 -448 9 -167 64 -293
182 -410 113 -113 245 -169 545 -232 123 -25 153 -28 345 -28 183 0 223 3 309
23 465 107 796 379 1108 912 207 352 294 744 222 997 -13 46 -13 57 0 80 29
58 68 183 94 298 25 115 26 133 26 415 0 281 -1 305 -31 500 -51 330 -98 501
-187 680 -118 238 -281 385 -506 458 -105 35 -221 50 -460 61 -124 6 -246 13
-272 16 -159 18 -258 139 -313 381 -51 228 -57 501 -15 694 13 59 23 152 27
244 5 133 4 151 -11 162 -24 17 -71 2 -158 -51 -40 -25 -76 -45 -81 -45 -5 0
-28 14 -53 30 l-44 31 0 174 c0 96 -4 176 -8 179 -5 3 -19 -14 -31 -37z"/>
</g>
</svg>
