<svg width="350" height="300" xmlns="http://www.w3.org/2000/svg">
 <!-- Created with SVG-edit - http://svg-edit.googlecode.com/ -->
 <title>logo for cs160</title>

 <g>
  <title>background</title>
  <rect fill="none" id="canvas_background" height="302" width="352" y="-1" x="-1"/>
 </g>
 <g>
  <title>Layer 1</title>
  <line stroke="#000000" id="svg_8" y2="212.539212" x2="33.782391" y1="136.539211" x1="33.782391" stroke-linecap="null" stroke-linejoin="null" stroke-width="20" fill="none"/>
  <line stroke="#000000" id="svg_12" y2="222.539208" x2="332.824617" y1="222.539208" x1="23.782391" stroke-linecap="null" stroke-linejoin="null" stroke-width="20" fill="none"/>
  <path stroke="#000000" id="svg_5" d="m87.506478,60.775583c1.241605,-0.238248 10.259632,9.47992 10.429721,11.438203c0.248321,2.859513 5.959863,2.859513 7.449789,2.859513c1.490006,0 12.168047,6.195674 19.369515,12.867998c7.201548,6.672247 28.30931,0.476573 29.799236,0c1.490006,-0.476649 69.53163,-13.106246 87.907782,-4.289307c8.825553,4.234485 26.221565,-10.725982 28.495571,-41.820877c-0.931224,-20.731638 -20.359692,-21.509691 -24.398155,-15.191299c-2.979932,2.79995 -8.070631,1.965929 -6.828947,-3.157399c1.129036,-3.430819 8.691394,-13.999829 22.659828,-9.353073c11.841892,3.939351 18.691233,13.414301 21.231963,27.344323c1.676187,30.025226 -21.790745,52.186658 -21.790745,52.186658c0,0 1.862447,7.863793 4.469937,12.867998c2.60741,5.004204 3.352373,22.161432 2.979852,24.306048c-0.372442,2.144692 11.174763,13.940343 14.899658,14.297716c3.228253,1.429794 12.292248,27.88061 12.664689,33.599635c3.352453,1.608481 -0.372442,9.65096 -4.469858,10.723306c-4.097416,1.072346 -5.2149,-6.433999 -5.2149,-10.008409c0,-3.57441 -4.097416,-20.374266 -15.644621,-22.161432c-11.547205,-1.787243 -21.604404,-7.863793 -21.604404,-7.863793c0,0 -0.745043,3.574486 -2.234969,5.004281c0,0 3.724895,6.076474 3.724895,15.012536c-0.372442,3.931858 -6.332305,16.084959 -10.429721,17.157305c0,0 -6.704826,10.008409 -9.684758,10.008409c-2.979932,0 -8.194832,3.57441 -16.389584,-0.714897c0,0 1.489926,-8.936063 8.939795,-6.433999c0,0 17.507068,-12.867921 8.939715,-18.587023c0,0 -5.21482,-7.14882 -8.194752,-10.008409c-2.979932,-2.859513 -5.959863,-7.506268 -6.704826,-12.867921c0,0 -24.956857,-1.429794 -31.289242,-2.859589c-6.332305,-1.429718 -17.87951,2.144692 -17.87951,4.289307c0,2.144692 1.862447,22.518957 5.21482,26.450816c0,0 1.117484,5.004204 0,6.433999c-1.117484,1.429718 4.097416,13.22537 -5.959863,12.153024c-9.498497,1.608481 -14.154615,-5.540339 -2.979852,-7.863717c0.558702,-7.685031 -14.154695,-40.21232 -23.839452,-35.744327c-12.664689,1.787243 -8.381013,-8.7573 -20.859441,7.863793c-13.037211,14.655088 -35.386657,25.020945 -36.504062,31.454944c0,0 -6.704826,-1.429794 -8.194832,3.57441c0,0 -17.507068,2.144692 -16.389584,-0.714897c1.117484,-2.859513 2.048708,-8.7573 8.939795,-6.433922c0,0 15.644621,-5.897864 30.544199,-36.459224c0,0 -1.862447,-7.863717 0.744963,-14.297716c2.60749,-6.433922 -1.489926,-32.884738 -20.114478,-31.454944c0,0 -6.953147,2.38294 -11.174684,-8.578614c0,0 -1.738327,-2.144692 0,-4.289307c1.738247,-2.144692 5.959863,-5.480777 6.704826,-7.863717c0.744963,-2.383016 2.48329,-5.957426 11.919647,-9.293588c4.469937,-4.467993 -0.496562,-13.344494 0.745043,-13.582818z" fill-opacity="null" stroke-opacity="null" stroke-width="15" fill="none"/>
  <line stroke="#000000" id="svg_9" y2="212.539212" x2="322.782391" y1="136.539211" x1="322.782391" stroke-linecap="null" stroke-linejoin="null" stroke-width="20" fill="none"/>
 </g>
</svg>
